<mxfile host="app.diagrams.net" agent="Mozilla/5.0 (X11; Ubuntu; Linux x86_64; rv:134.0) Gecko/20100101 Firefox/134.0" version="26.0.8">
  <diagram name="Page-1" id="DQwqsNwb2v5oY_3Jij-_">
    <mxGraphModel dx="3890" dy="2856" grid="1" gridSize="10" guides="1" tooltips="1" connect="1" arrows="1" fold="1" page="1" pageScale="1" pageWidth="850" pageHeight="1100" math="0" shadow="0">
      <root>
        <mxCell id="0" />
        <mxCell id="1" parent="0" />
        <mxCell id="jqKhOtcGuDsJszMlF_8p-5" value="&lt;div&gt;PC Counter&lt;/div&gt;" style="swimlane;whiteSpace=wrap;html=1;" vertex="1" parent="1">
          <mxGeometry x="40" y="190" width="180" height="120" as="geometry" />
        </mxCell>
        <mxCell id="jqKhOtcGuDsJszMlF_8p-10" value="en" style="text;html=1;align=center;verticalAlign=middle;whiteSpace=wrap;rounded=0;" vertex="1" parent="jqKhOtcGuDsJszMlF_8p-5">
          <mxGeometry y="30" width="60" height="30" as="geometry" />
        </mxCell>
        <mxCell id="jqKhOtcGuDsJszMlF_8p-11" value="jump" style="text;html=1;align=center;verticalAlign=middle;whiteSpace=wrap;rounded=0;" vertex="1" parent="jqKhOtcGuDsJszMlF_8p-5">
          <mxGeometry y="60" width="60" height="30" as="geometry" />
        </mxCell>
        <mxCell id="jqKhOtcGuDsJszMlF_8p-12" value="address" style="text;html=1;align=center;verticalAlign=middle;whiteSpace=wrap;rounded=0;" vertex="1" parent="jqKhOtcGuDsJszMlF_8p-5">
          <mxGeometry y="90" width="60" height="30" as="geometry" />
        </mxCell>
        <mxCell id="jqKhOtcGuDsJszMlF_8p-13" value="&lt;div&gt;address_out&lt;/div&gt;" style="text;html=1;align=center;verticalAlign=middle;whiteSpace=wrap;rounded=0;" vertex="1" parent="jqKhOtcGuDsJszMlF_8p-5">
          <mxGeometry x="110" y="60" width="70" height="30" as="geometry" />
        </mxCell>
        <mxCell id="jqKhOtcGuDsJszMlF_8p-14" value="&lt;div&gt;ROM&lt;/div&gt;" style="swimlane;whiteSpace=wrap;html=1;" vertex="1" parent="1">
          <mxGeometry x="315" y="170" width="220" height="120" as="geometry" />
        </mxCell>
        <mxCell id="jqKhOtcGuDsJszMlF_8p-15" value="en" style="text;html=1;align=center;verticalAlign=middle;whiteSpace=wrap;rounded=0;" vertex="1" parent="jqKhOtcGuDsJszMlF_8p-14">
          <mxGeometry y="30" width="60" height="30" as="geometry" />
        </mxCell>
        <mxCell id="jqKhOtcGuDsJszMlF_8p-16" value="address_in" style="text;html=1;align=center;verticalAlign=middle;whiteSpace=wrap;rounded=0;" vertex="1" parent="jqKhOtcGuDsJszMlF_8p-14">
          <mxGeometry y="80" width="60" height="30" as="geometry" />
        </mxCell>
        <mxCell id="jqKhOtcGuDsJszMlF_8p-17" value="instruction" style="text;html=1;align=center;verticalAlign=middle;whiteSpace=wrap;rounded=0;" vertex="1" parent="jqKhOtcGuDsJszMlF_8p-14">
          <mxGeometry x="160" y="50" width="60" height="30" as="geometry" />
        </mxCell>
        <mxCell id="jqKhOtcGuDsJszMlF_8p-18" style="edgeStyle=orthogonalEdgeStyle;rounded=0;orthogonalLoop=1;jettySize=auto;html=1;" edge="1" parent="1" source="jqKhOtcGuDsJszMlF_8p-13" target="jqKhOtcGuDsJszMlF_8p-16">
          <mxGeometry relative="1" as="geometry" />
        </mxCell>
        <mxCell id="jqKhOtcGuDsJszMlF_8p-19" value="Decoder" style="swimlane;whiteSpace=wrap;html=1;" vertex="1" parent="1">
          <mxGeometry x="640" y="160" width="200" height="520" as="geometry" />
        </mxCell>
        <mxCell id="jqKhOtcGuDsJszMlF_8p-61" value="a" style="text;html=1;align=center;verticalAlign=middle;whiteSpace=wrap;rounded=0;" vertex="1" parent="jqKhOtcGuDsJszMlF_8p-19">
          <mxGeometry x="140" y="250" width="60" height="30" as="geometry" />
        </mxCell>
        <mxCell id="jqKhOtcGuDsJszMlF_8p-62" value="b" style="text;html=1;align=center;verticalAlign=middle;whiteSpace=wrap;rounded=0;" vertex="1" parent="jqKhOtcGuDsJszMlF_8p-19">
          <mxGeometry x="140" y="280" width="60" height="30" as="geometry" />
        </mxCell>
        <mxCell id="jqKhOtcGuDsJszMlF_8p-65" value="sel" style="text;html=1;align=center;verticalAlign=middle;whiteSpace=wrap;rounded=0;" vertex="1" parent="jqKhOtcGuDsJszMlF_8p-19">
          <mxGeometry x="140" y="310" width="60" height="30" as="geometry" />
        </mxCell>
        <mxCell id="jqKhOtcGuDsJszMlF_8p-67" value="instruction" style="text;html=1;align=center;verticalAlign=middle;whiteSpace=wrap;rounded=0;" vertex="1" parent="jqKhOtcGuDsJszMlF_8p-19">
          <mxGeometry y="60" width="60" height="30" as="geometry" />
        </mxCell>
        <mxCell id="jqKhOtcGuDsJszMlF_8p-68" value="en" style="text;html=1;align=center;verticalAlign=middle;whiteSpace=wrap;rounded=0;" vertex="1" parent="jqKhOtcGuDsJszMlF_8p-19">
          <mxGeometry y="30" width="60" height="30" as="geometry" />
        </mxCell>
        <mxCell id="jqKhOtcGuDsJszMlF_8p-70" value="ram_address" style="text;html=1;align=center;verticalAlign=middle;whiteSpace=wrap;rounded=0;" vertex="1" parent="jqKhOtcGuDsJszMlF_8p-19">
          <mxGeometry x="120" y="80" width="80" height="30" as="geometry" />
        </mxCell>
        <mxCell id="jqKhOtcGuDsJszMlF_8p-73" value="ram_value_out" style="text;html=1;align=center;verticalAlign=middle;whiteSpace=wrap;rounded=0;" vertex="1" parent="jqKhOtcGuDsJszMlF_8p-19">
          <mxGeometry x="110" y="110" width="90" height="30" as="geometry" />
        </mxCell>
        <mxCell id="jqKhOtcGuDsJszMlF_8p-76" value="ram_rw" style="text;html=1;align=center;verticalAlign=middle;whiteSpace=wrap;rounded=0;" vertex="1" parent="jqKhOtcGuDsJszMlF_8p-19">
          <mxGeometry x="120" y="50" width="80" height="30" as="geometry" />
        </mxCell>
        <mxCell id="jqKhOtcGuDsJszMlF_8p-78" value="&lt;div&gt;ram_value_in&lt;/div&gt;" style="text;html=1;align=center;verticalAlign=middle;whiteSpace=wrap;rounded=0;" vertex="1" parent="jqKhOtcGuDsJszMlF_8p-19">
          <mxGeometry y="90" width="90" height="30" as="geometry" />
        </mxCell>
        <mxCell id="jqKhOtcGuDsJszMlF_8p-80" value="&lt;div&gt;reg_address_a&lt;/div&gt;" style="text;html=1;align=center;verticalAlign=middle;whiteSpace=wrap;rounded=0;" vertex="1" parent="jqKhOtcGuDsJszMlF_8p-19">
          <mxGeometry x="100" y="190" width="100" height="30" as="geometry" />
        </mxCell>
        <mxCell id="jqKhOtcGuDsJszMlF_8p-82" value="reg_rw" style="text;html=1;align=center;verticalAlign=middle;whiteSpace=wrap;rounded=0;" vertex="1" parent="jqKhOtcGuDsJszMlF_8p-19">
          <mxGeometry x="120" y="160" width="80" height="30" as="geometry" />
        </mxCell>
        <mxCell id="jqKhOtcGuDsJszMlF_8p-83" value="&lt;div&gt;reg_address_b&lt;/div&gt;" style="text;html=1;align=center;verticalAlign=middle;whiteSpace=wrap;rounded=0;" vertex="1" parent="jqKhOtcGuDsJszMlF_8p-19">
          <mxGeometry x="100" y="220" width="100" height="30" as="geometry" />
        </mxCell>
        <mxCell id="jqKhOtcGuDsJszMlF_8p-88" value="jump" style="text;html=1;align=center;verticalAlign=middle;whiteSpace=wrap;rounded=0;" vertex="1" parent="jqKhOtcGuDsJszMlF_8p-19">
          <mxGeometry x="140" y="360" width="60" height="30" as="geometry" />
        </mxCell>
        <mxCell id="jqKhOtcGuDsJszMlF_8p-89" value="jump_address" style="text;html=1;align=center;verticalAlign=middle;whiteSpace=wrap;rounded=0;" vertex="1" parent="jqKhOtcGuDsJszMlF_8p-19">
          <mxGeometry x="100" y="400" width="100" height="30" as="geometry" />
        </mxCell>
        <mxCell id="jqKhOtcGuDsJszMlF_8p-92" value="reg_value_a" style="text;html=1;align=center;verticalAlign=middle;whiteSpace=wrap;rounded=0;" vertex="1" parent="jqKhOtcGuDsJszMlF_8p-19">
          <mxGeometry y="140" width="90" height="30" as="geometry" />
        </mxCell>
        <mxCell id="jqKhOtcGuDsJszMlF_8p-93" value="reg_value_b" style="text;html=1;align=center;verticalAlign=middle;whiteSpace=wrap;rounded=0;" vertex="1" parent="jqKhOtcGuDsJszMlF_8p-19">
          <mxGeometry y="170" width="90" height="30" as="geometry" />
        </mxCell>
        <mxCell id="jqKhOtcGuDsJszMlF_8p-94" value="status" style="text;html=1;align=center;verticalAlign=middle;whiteSpace=wrap;rounded=0;" vertex="1" parent="jqKhOtcGuDsJszMlF_8p-19">
          <mxGeometry y="205" width="60" height="30" as="geometry" />
        </mxCell>
        <mxCell id="jqKhOtcGuDsJszMlF_8p-102" value="out_a" style="text;html=1;align=center;verticalAlign=middle;whiteSpace=wrap;rounded=0;" vertex="1" parent="jqKhOtcGuDsJszMlF_8p-19">
          <mxGeometry x="100" y="450" width="100" height="30" as="geometry" />
        </mxCell>
        <mxCell id="jqKhOtcGuDsJszMlF_8p-103" value="out_b" style="text;html=1;align=center;verticalAlign=middle;whiteSpace=wrap;rounded=0;" vertex="1" parent="jqKhOtcGuDsJszMlF_8p-19">
          <mxGeometry x="100" y="480" width="100" height="30" as="geometry" />
        </mxCell>
        <mxCell id="jqKhOtcGuDsJszMlF_8p-109" value="&lt;div align=&quot;center&quot;&gt;SW&lt;/div&gt;" style="text;html=1;align=center;verticalAlign=middle;whiteSpace=wrap;rounded=0;" vertex="1" parent="jqKhOtcGuDsJszMlF_8p-19">
          <mxGeometry y="320" width="60" height="30" as="geometry" />
        </mxCell>
        <mxCell id="jqKhOtcGuDsJszMlF_8p-110" value="KEY" style="text;html=1;align=center;verticalAlign=middle;whiteSpace=wrap;rounded=0;" vertex="1" parent="jqKhOtcGuDsJszMlF_8p-19">
          <mxGeometry y="355" width="60" height="30" as="geometry" />
        </mxCell>
        <mxCell id="jqKhOtcGuDsJszMlF_8p-115" value="pc" style="text;html=1;align=center;verticalAlign=middle;whiteSpace=wrap;rounded=0;" vertex="1" parent="jqKhOtcGuDsJszMlF_8p-19">
          <mxGeometry y="280" width="60" height="30" as="geometry" />
        </mxCell>
        <mxCell id="jqKhOtcGuDsJszMlF_8p-20" value="Register File" style="swimlane;whiteSpace=wrap;html=1;" vertex="1" parent="1">
          <mxGeometry x="1440" y="310" width="220" height="240" as="geometry" />
        </mxCell>
        <mxCell id="jqKhOtcGuDsJszMlF_8p-21" value="en" style="text;html=1;align=center;verticalAlign=middle;whiteSpace=wrap;rounded=0;" vertex="1" parent="jqKhOtcGuDsJszMlF_8p-20">
          <mxGeometry y="30" width="60" height="30" as="geometry" />
        </mxCell>
        <mxCell id="jqKhOtcGuDsJszMlF_8p-24" value="rw" style="text;html=1;align=center;verticalAlign=middle;whiteSpace=wrap;rounded=0;" vertex="1" parent="jqKhOtcGuDsJszMlF_8p-20">
          <mxGeometry y="60" width="60" height="30" as="geometry" />
        </mxCell>
        <mxCell id="jqKhOtcGuDsJszMlF_8p-25" value="address_in" style="text;html=1;align=center;verticalAlign=middle;whiteSpace=wrap;rounded=0;" vertex="1" parent="jqKhOtcGuDsJszMlF_8p-20">
          <mxGeometry y="90" width="60" height="30" as="geometry" />
        </mxCell>
        <mxCell id="jqKhOtcGuDsJszMlF_8p-26" value="data_in" style="text;html=1;align=center;verticalAlign=middle;whiteSpace=wrap;rounded=0;" vertex="1" parent="jqKhOtcGuDsJszMlF_8p-20">
          <mxGeometry y="120" width="60" height="30" as="geometry" />
        </mxCell>
        <mxCell id="jqKhOtcGuDsJszMlF_8p-27" value="address_a" style="text;html=1;align=center;verticalAlign=middle;whiteSpace=wrap;rounded=0;" vertex="1" parent="jqKhOtcGuDsJszMlF_8p-20">
          <mxGeometry y="180" width="60" height="30" as="geometry" />
        </mxCell>
        <mxCell id="jqKhOtcGuDsJszMlF_8p-28" value="address_b" style="text;html=1;align=center;verticalAlign=middle;whiteSpace=wrap;rounded=0;" vertex="1" parent="jqKhOtcGuDsJszMlF_8p-20">
          <mxGeometry y="210" width="60" height="30" as="geometry" />
        </mxCell>
        <mxCell id="jqKhOtcGuDsJszMlF_8p-29" value="data_a" style="text;html=1;align=center;verticalAlign=middle;whiteSpace=wrap;rounded=0;" vertex="1" parent="jqKhOtcGuDsJszMlF_8p-20">
          <mxGeometry x="160" y="90" width="60" height="30" as="geometry" />
        </mxCell>
        <mxCell id="jqKhOtcGuDsJszMlF_8p-30" value="data_b" style="text;html=1;align=center;verticalAlign=middle;whiteSpace=wrap;rounded=0;" vertex="1" parent="jqKhOtcGuDsJszMlF_8p-20">
          <mxGeometry x="160" y="130" width="60" height="30" as="geometry" />
        </mxCell>
        <mxCell id="jqKhOtcGuDsJszMlF_8p-31" value="RAM" style="swimlane;whiteSpace=wrap;html=1;startSize=23;" vertex="1" parent="1">
          <mxGeometry x="1200" width="220" height="160" as="geometry" />
        </mxCell>
        <mxCell id="jqKhOtcGuDsJszMlF_8p-32" value="en" style="text;html=1;align=center;verticalAlign=middle;whiteSpace=wrap;rounded=0;" vertex="1" parent="jqKhOtcGuDsJszMlF_8p-31">
          <mxGeometry y="30" width="60" height="30" as="geometry" />
        </mxCell>
        <mxCell id="jqKhOtcGuDsJszMlF_8p-34" value="data_out" style="text;html=1;align=center;verticalAlign=middle;whiteSpace=wrap;rounded=0;" vertex="1" parent="jqKhOtcGuDsJszMlF_8p-31">
          <mxGeometry x="160" y="50" width="60" height="30" as="geometry" />
        </mxCell>
        <mxCell id="jqKhOtcGuDsJszMlF_8p-39" value="rw" style="text;html=1;align=center;verticalAlign=middle;whiteSpace=wrap;rounded=0;" vertex="1" parent="jqKhOtcGuDsJszMlF_8p-31">
          <mxGeometry y="60" width="60" height="30" as="geometry" />
        </mxCell>
        <mxCell id="jqKhOtcGuDsJszMlF_8p-40" value="address_in" style="text;html=1;align=center;verticalAlign=middle;whiteSpace=wrap;rounded=0;" vertex="1" parent="jqKhOtcGuDsJszMlF_8p-31">
          <mxGeometry y="90" width="60" height="30" as="geometry" />
        </mxCell>
        <mxCell id="jqKhOtcGuDsJszMlF_8p-41" value="data_in" style="text;html=1;align=center;verticalAlign=middle;whiteSpace=wrap;rounded=0;" vertex="1" parent="jqKhOtcGuDsJszMlF_8p-31">
          <mxGeometry y="120" width="60" height="30" as="geometry" />
        </mxCell>
        <mxCell id="jqKhOtcGuDsJszMlF_8p-42" value="ALU" style="swimlane;whiteSpace=wrap;html=1;" vertex="1" parent="1">
          <mxGeometry x="990" y="470" width="160" height="160" as="geometry" />
        </mxCell>
        <mxCell id="jqKhOtcGuDsJszMlF_8p-43" value="en" style="text;html=1;align=center;verticalAlign=middle;whiteSpace=wrap;rounded=0;" vertex="1" parent="jqKhOtcGuDsJszMlF_8p-42">
          <mxGeometry y="30" width="60" height="30" as="geometry" />
        </mxCell>
        <mxCell id="jqKhOtcGuDsJszMlF_8p-44" value="a" style="text;html=1;align=center;verticalAlign=middle;whiteSpace=wrap;rounded=0;" vertex="1" parent="jqKhOtcGuDsJszMlF_8p-42">
          <mxGeometry y="60" width="60" height="30" as="geometry" />
        </mxCell>
        <mxCell id="jqKhOtcGuDsJszMlF_8p-45" value="b" style="text;html=1;align=center;verticalAlign=middle;whiteSpace=wrap;rounded=0;" vertex="1" parent="jqKhOtcGuDsJszMlF_8p-42">
          <mxGeometry y="90" width="60" height="30" as="geometry" />
        </mxCell>
        <mxCell id="jqKhOtcGuDsJszMlF_8p-46" value="sel" style="text;html=1;align=center;verticalAlign=middle;whiteSpace=wrap;rounded=0;" vertex="1" parent="jqKhOtcGuDsJszMlF_8p-42">
          <mxGeometry y="120" width="60" height="30" as="geometry" />
        </mxCell>
        <mxCell id="jqKhOtcGuDsJszMlF_8p-47" value="result" style="text;html=1;align=center;verticalAlign=middle;whiteSpace=wrap;rounded=0;" vertex="1" parent="jqKhOtcGuDsJszMlF_8p-42">
          <mxGeometry x="100" y="80" width="60" height="30" as="geometry" />
        </mxCell>
        <mxCell id="jqKhOtcGuDsJszMlF_8p-49" value="status" style="text;html=1;align=center;verticalAlign=middle;whiteSpace=wrap;rounded=0;" vertex="1" parent="jqKhOtcGuDsJszMlF_8p-42">
          <mxGeometry x="100" y="110" width="60" height="30" as="geometry" />
        </mxCell>
        <mxCell id="jqKhOtcGuDsJszMlF_8p-48" style="edgeStyle=orthogonalEdgeStyle;rounded=0;orthogonalLoop=1;jettySize=auto;html=1;strokeColor=#FF0000;" edge="1" parent="1" source="jqKhOtcGuDsJszMlF_8p-47" target="jqKhOtcGuDsJszMlF_8p-26">
          <mxGeometry relative="1" as="geometry">
            <Array as="points">
              <mxPoint x="1410" y="565" />
              <mxPoint x="1410" y="445" />
            </Array>
          </mxGeometry>
        </mxCell>
        <mxCell id="jqKhOtcGuDsJszMlF_8p-50" value="Status" style="swimlane;whiteSpace=wrap;html=1;" vertex="1" parent="1">
          <mxGeometry x="1280" y="600" width="160" height="110" as="geometry" />
        </mxCell>
        <mxCell id="jqKhOtcGuDsJszMlF_8p-51" value="en" style="text;html=1;align=center;verticalAlign=middle;whiteSpace=wrap;rounded=0;" vertex="1" parent="jqKhOtcGuDsJszMlF_8p-50">
          <mxGeometry y="30" width="60" height="30" as="geometry" />
        </mxCell>
        <mxCell id="jqKhOtcGuDsJszMlF_8p-56" value="status_out" style="text;html=1;align=center;verticalAlign=middle;whiteSpace=wrap;rounded=0;" vertex="1" parent="jqKhOtcGuDsJszMlF_8p-50">
          <mxGeometry x="100" y="70" width="60" height="30" as="geometry" />
        </mxCell>
        <mxCell id="jqKhOtcGuDsJszMlF_8p-58" value="status_in" style="text;html=1;align=center;verticalAlign=middle;whiteSpace=wrap;rounded=0;" vertex="1" parent="jqKhOtcGuDsJszMlF_8p-50">
          <mxGeometry y="70" width="60" height="30" as="geometry" />
        </mxCell>
        <mxCell id="jqKhOtcGuDsJszMlF_8p-60" style="edgeStyle=orthogonalEdgeStyle;rounded=0;orthogonalLoop=1;jettySize=auto;html=1;entryX=0;entryY=0.5;entryDx=0;entryDy=0;" edge="1" parent="1" source="jqKhOtcGuDsJszMlF_8p-49" target="jqKhOtcGuDsJszMlF_8p-58">
          <mxGeometry relative="1" as="geometry">
            <Array as="points">
              <mxPoint x="1180" y="595" />
              <mxPoint x="1180" y="685" />
            </Array>
          </mxGeometry>
        </mxCell>
        <mxCell id="jqKhOtcGuDsJszMlF_8p-63" style="edgeStyle=orthogonalEdgeStyle;rounded=0;orthogonalLoop=1;jettySize=auto;html=1;" edge="1" parent="1" source="jqKhOtcGuDsJszMlF_8p-61" target="jqKhOtcGuDsJszMlF_8p-44">
          <mxGeometry relative="1" as="geometry">
            <Array as="points">
              <mxPoint x="940" y="425" />
              <mxPoint x="940" y="545" />
            </Array>
          </mxGeometry>
        </mxCell>
        <mxCell id="jqKhOtcGuDsJszMlF_8p-64" style="edgeStyle=orthogonalEdgeStyle;rounded=0;orthogonalLoop=1;jettySize=auto;html=1;" edge="1" parent="1" source="jqKhOtcGuDsJszMlF_8p-62" target="jqKhOtcGuDsJszMlF_8p-45">
          <mxGeometry relative="1" as="geometry">
            <Array as="points">
              <mxPoint x="930" y="455" />
              <mxPoint x="930" y="575" />
            </Array>
          </mxGeometry>
        </mxCell>
        <mxCell id="jqKhOtcGuDsJszMlF_8p-66" style="edgeStyle=orthogonalEdgeStyle;rounded=0;orthogonalLoop=1;jettySize=auto;html=1;" edge="1" parent="1" source="jqKhOtcGuDsJszMlF_8p-65" target="jqKhOtcGuDsJszMlF_8p-46">
          <mxGeometry relative="1" as="geometry">
            <Array as="points">
              <mxPoint x="910" y="485" />
              <mxPoint x="910" y="605" />
            </Array>
          </mxGeometry>
        </mxCell>
        <mxCell id="jqKhOtcGuDsJszMlF_8p-69" style="edgeStyle=orthogonalEdgeStyle;rounded=0;orthogonalLoop=1;jettySize=auto;html=1;entryX=0;entryY=0.5;entryDx=0;entryDy=0;" edge="1" parent="1" source="jqKhOtcGuDsJszMlF_8p-17" target="jqKhOtcGuDsJszMlF_8p-67">
          <mxGeometry relative="1" as="geometry" />
        </mxCell>
        <mxCell id="jqKhOtcGuDsJszMlF_8p-71" style="edgeStyle=orthogonalEdgeStyle;rounded=0;orthogonalLoop=1;jettySize=auto;html=1;entryX=0;entryY=0.5;entryDx=0;entryDy=0;" edge="1" parent="1" source="jqKhOtcGuDsJszMlF_8p-70" target="jqKhOtcGuDsJszMlF_8p-40">
          <mxGeometry relative="1" as="geometry" />
        </mxCell>
        <mxCell id="jqKhOtcGuDsJszMlF_8p-75" style="edgeStyle=orthogonalEdgeStyle;rounded=0;orthogonalLoop=1;jettySize=auto;html=1;entryX=0;entryY=0.5;entryDx=0;entryDy=0;" edge="1" parent="1" source="jqKhOtcGuDsJszMlF_8p-73" target="jqKhOtcGuDsJszMlF_8p-41">
          <mxGeometry relative="1" as="geometry">
            <Array as="points">
              <mxPoint x="1070" y="285" />
              <mxPoint x="1070" y="135" />
            </Array>
          </mxGeometry>
        </mxCell>
        <mxCell id="jqKhOtcGuDsJszMlF_8p-77" style="edgeStyle=orthogonalEdgeStyle;rounded=0;orthogonalLoop=1;jettySize=auto;html=1;entryX=0;entryY=0.5;entryDx=0;entryDy=0;" edge="1" parent="1" source="jqKhOtcGuDsJszMlF_8p-76" target="jqKhOtcGuDsJszMlF_8p-39">
          <mxGeometry relative="1" as="geometry">
            <Array as="points">
              <mxPoint x="990" y="225" />
              <mxPoint x="990" y="75" />
            </Array>
          </mxGeometry>
        </mxCell>
        <mxCell id="jqKhOtcGuDsJszMlF_8p-79" style="edgeStyle=orthogonalEdgeStyle;rounded=0;orthogonalLoop=1;jettySize=auto;html=1;entryX=0;entryY=0.5;entryDx=0;entryDy=0;strokeColor=#FF0000;" edge="1" parent="1" source="jqKhOtcGuDsJszMlF_8p-34" target="jqKhOtcGuDsJszMlF_8p-78">
          <mxGeometry relative="1" as="geometry">
            <Array as="points">
              <mxPoint x="1490" y="65" />
              <mxPoint x="1490" y="-50" />
              <mxPoint x="620" y="-50" />
              <mxPoint x="620" y="265" />
            </Array>
          </mxGeometry>
        </mxCell>
        <mxCell id="jqKhOtcGuDsJszMlF_8p-84" style="edgeStyle=orthogonalEdgeStyle;rounded=0;orthogonalLoop=1;jettySize=auto;html=1;entryX=0;entryY=0.5;entryDx=0;entryDy=0;" edge="1" parent="1" source="jqKhOtcGuDsJszMlF_8p-82" target="jqKhOtcGuDsJszMlF_8p-24">
          <mxGeometry relative="1" as="geometry">
            <Array as="points">
              <mxPoint x="1400" y="335" />
              <mxPoint x="1400" y="385" />
            </Array>
          </mxGeometry>
        </mxCell>
        <mxCell id="jqKhOtcGuDsJszMlF_8p-85" style="edgeStyle=orthogonalEdgeStyle;rounded=0;orthogonalLoop=1;jettySize=auto;html=1;entryX=0;entryY=0.5;entryDx=0;entryDy=0;" edge="1" parent="1" source="jqKhOtcGuDsJszMlF_8p-80" target="jqKhOtcGuDsJszMlF_8p-27">
          <mxGeometry relative="1" as="geometry">
            <Array as="points">
              <mxPoint x="1380" y="365" />
              <mxPoint x="1380" y="505" />
            </Array>
          </mxGeometry>
        </mxCell>
        <mxCell id="jqKhOtcGuDsJszMlF_8p-86" style="edgeStyle=orthogonalEdgeStyle;rounded=0;orthogonalLoop=1;jettySize=auto;html=1;entryX=0;entryY=0.5;entryDx=0;entryDy=0;" edge="1" parent="1" source="jqKhOtcGuDsJszMlF_8p-83" target="jqKhOtcGuDsJszMlF_8p-28">
          <mxGeometry relative="1" as="geometry">
            <Array as="points">
              <mxPoint x="1350" y="395" />
              <mxPoint x="1350" y="535" />
            </Array>
          </mxGeometry>
        </mxCell>
        <mxCell id="jqKhOtcGuDsJszMlF_8p-90" style="edgeStyle=orthogonalEdgeStyle;rounded=0;orthogonalLoop=1;jettySize=auto;html=1;entryX=0;entryY=0.5;entryDx=0;entryDy=0;" edge="1" parent="1" source="jqKhOtcGuDsJszMlF_8p-88" target="jqKhOtcGuDsJszMlF_8p-11">
          <mxGeometry relative="1" as="geometry">
            <Array as="points">
              <mxPoint x="890" y="535" />
              <mxPoint x="890" y="720" />
              <mxPoint x="-10" y="720" />
              <mxPoint x="-10" y="265" />
            </Array>
          </mxGeometry>
        </mxCell>
        <mxCell id="jqKhOtcGuDsJszMlF_8p-91" style="edgeStyle=orthogonalEdgeStyle;rounded=0;orthogonalLoop=1;jettySize=auto;html=1;entryX=0;entryY=0.5;entryDx=0;entryDy=0;" edge="1" parent="1" source="jqKhOtcGuDsJszMlF_8p-89" target="jqKhOtcGuDsJszMlF_8p-12">
          <mxGeometry relative="1" as="geometry">
            <Array as="points">
              <mxPoint x="870" y="575" />
              <mxPoint x="870" y="700" />
              <mxPoint x="20" y="700" />
              <mxPoint x="20" y="295" />
            </Array>
          </mxGeometry>
        </mxCell>
        <mxCell id="jqKhOtcGuDsJszMlF_8p-95" style="edgeStyle=orthogonalEdgeStyle;rounded=0;orthogonalLoop=1;jettySize=auto;html=1;entryX=0;entryY=0.5;entryDx=0;entryDy=0;strokeColor=#FF0000;" edge="1" parent="1" source="jqKhOtcGuDsJszMlF_8p-56" target="jqKhOtcGuDsJszMlF_8p-94">
          <mxGeometry relative="1" as="geometry">
            <Array as="points">
              <mxPoint x="1490" y="685" />
              <mxPoint x="1490" y="740" />
              <mxPoint x="620" y="740" />
              <mxPoint x="620" y="380" />
            </Array>
          </mxGeometry>
        </mxCell>
        <mxCell id="jqKhOtcGuDsJszMlF_8p-96" style="edgeStyle=orthogonalEdgeStyle;rounded=0;orthogonalLoop=1;jettySize=auto;html=1;entryX=0;entryY=0.5;entryDx=0;entryDy=0;strokeColor=#FF0000;" edge="1" parent="1" source="jqKhOtcGuDsJszMlF_8p-29" target="jqKhOtcGuDsJszMlF_8p-92">
          <mxGeometry relative="1" as="geometry">
            <Array as="points">
              <mxPoint x="1740" y="415" />
              <mxPoint x="1740" y="810" />
              <mxPoint x="560" y="810" />
              <mxPoint x="560" y="315" />
            </Array>
          </mxGeometry>
        </mxCell>
        <mxCell id="jqKhOtcGuDsJszMlF_8p-97" style="edgeStyle=orthogonalEdgeStyle;rounded=0;orthogonalLoop=1;jettySize=auto;html=1;entryX=0;entryY=0.5;entryDx=0;entryDy=0;strokeColor=#FF0000;" edge="1" parent="1" source="jqKhOtcGuDsJszMlF_8p-30" target="jqKhOtcGuDsJszMlF_8p-93">
          <mxGeometry relative="1" as="geometry">
            <Array as="points">
              <mxPoint x="1690" y="455" />
              <mxPoint x="1690" y="780" />
              <mxPoint x="590" y="780" />
              <mxPoint x="590" y="345" />
            </Array>
          </mxGeometry>
        </mxCell>
        <mxCell id="jqKhOtcGuDsJszMlF_8p-98" value="Screen" style="swimlane;whiteSpace=wrap;html=1;fillColor=#3333FF;" vertex="1" parent="1">
          <mxGeometry x="1040" y="840" width="130" height="120" as="geometry" />
        </mxCell>
        <mxCell id="jqKhOtcGuDsJszMlF_8p-99" value="data_a" style="text;html=1;align=center;verticalAlign=middle;whiteSpace=wrap;rounded=0;" vertex="1" parent="jqKhOtcGuDsJszMlF_8p-98">
          <mxGeometry y="50" width="90" height="30" as="geometry" />
        </mxCell>
        <mxCell id="jqKhOtcGuDsJszMlF_8p-100" value="data_b" style="text;html=1;align=center;verticalAlign=middle;whiteSpace=wrap;rounded=0;" vertex="1" parent="jqKhOtcGuDsJszMlF_8p-98">
          <mxGeometry y="85" width="90" height="30" as="geometry" />
        </mxCell>
        <mxCell id="jqKhOtcGuDsJszMlF_8p-104" style="edgeStyle=orthogonalEdgeStyle;rounded=0;orthogonalLoop=1;jettySize=auto;html=1;entryX=0;entryY=0.5;entryDx=0;entryDy=0;strokeColor=#3333FF;" edge="1" parent="1" source="jqKhOtcGuDsJszMlF_8p-102" target="jqKhOtcGuDsJszMlF_8p-99">
          <mxGeometry relative="1" as="geometry" />
        </mxCell>
        <mxCell id="jqKhOtcGuDsJszMlF_8p-105" style="edgeStyle=orthogonalEdgeStyle;rounded=0;orthogonalLoop=1;jettySize=auto;html=1;entryX=0;entryY=0.5;entryDx=0;entryDy=0;strokeColor=#3333FF;" edge="1" parent="1" source="jqKhOtcGuDsJszMlF_8p-103" target="jqKhOtcGuDsJszMlF_8p-100">
          <mxGeometry relative="1" as="geometry">
            <Array as="points">
              <mxPoint x="920" y="655" />
              <mxPoint x="920" y="940" />
            </Array>
          </mxGeometry>
        </mxCell>
        <mxCell id="jqKhOtcGuDsJszMlF_8p-106" value="&lt;div&gt;HMI&lt;/div&gt;" style="swimlane;whiteSpace=wrap;html=1;strokeColor=#00CC00;" vertex="1" parent="1">
          <mxGeometry x="170" y="560" width="200" height="120" as="geometry" />
        </mxCell>
        <mxCell id="jqKhOtcGuDsJszMlF_8p-107" value="SW" style="text;html=1;align=center;verticalAlign=middle;whiteSpace=wrap;rounded=0;" vertex="1" parent="jqKhOtcGuDsJszMlF_8p-106">
          <mxGeometry x="140" y="40" width="60" height="30" as="geometry" />
        </mxCell>
        <mxCell id="jqKhOtcGuDsJszMlF_8p-108" value="KEY" style="text;html=1;align=center;verticalAlign=middle;whiteSpace=wrap;rounded=0;" vertex="1" parent="jqKhOtcGuDsJszMlF_8p-106">
          <mxGeometry x="140" y="80" width="60" height="30" as="geometry" />
        </mxCell>
        <mxCell id="jqKhOtcGuDsJszMlF_8p-112" style="edgeStyle=orthogonalEdgeStyle;rounded=0;orthogonalLoop=1;jettySize=auto;html=1;entryX=0;entryY=0.5;entryDx=0;entryDy=0;strokeColor=#00CC00;" edge="1" parent="1" source="jqKhOtcGuDsJszMlF_8p-107" target="jqKhOtcGuDsJszMlF_8p-109">
          <mxGeometry relative="1" as="geometry" />
        </mxCell>
        <mxCell id="jqKhOtcGuDsJszMlF_8p-113" style="edgeStyle=orthogonalEdgeStyle;rounded=0;orthogonalLoop=1;jettySize=auto;html=1;entryX=0;entryY=0.5;entryDx=0;entryDy=0;strokeColor=#00CC00;" edge="1" parent="1" source="jqKhOtcGuDsJszMlF_8p-108" target="jqKhOtcGuDsJszMlF_8p-110">
          <mxGeometry relative="1" as="geometry">
            <Array as="points">
              <mxPoint x="530" y="655" />
              <mxPoint x="530" y="530" />
            </Array>
          </mxGeometry>
        </mxCell>
        <mxCell id="jqKhOtcGuDsJszMlF_8p-116" style="edgeStyle=orthogonalEdgeStyle;rounded=0;orthogonalLoop=1;jettySize=auto;html=1;entryX=0;entryY=0.5;entryDx=0;entryDy=0;" edge="1" parent="1" source="jqKhOtcGuDsJszMlF_8p-13" target="jqKhOtcGuDsJszMlF_8p-115">
          <mxGeometry relative="1" as="geometry">
            <Array as="points">
              <mxPoint x="270" y="265" />
              <mxPoint x="270" y="455" />
            </Array>
          </mxGeometry>
        </mxCell>
        <mxCell id="jqKhOtcGuDsJszMlF_8p-119" style="edgeStyle=orthogonalEdgeStyle;rounded=0;orthogonalLoop=1;jettySize=auto;html=1;entryX=0;entryY=0.5;entryDx=0;entryDy=0;strokeColor=#FF00FF;strokeWidth=3;" edge="1" parent="1" source="jqKhOtcGuDsJszMlF_8p-118" target="jqKhOtcGuDsJszMlF_8p-10">
          <mxGeometry relative="1" as="geometry" />
        </mxCell>
        <mxCell id="jqKhOtcGuDsJszMlF_8p-120" style="edgeStyle=orthogonalEdgeStyle;rounded=0;orthogonalLoop=1;jettySize=auto;html=1;entryX=0;entryY=0.5;entryDx=0;entryDy=0;strokeColor=#FF00FF;strokeWidth=3;" edge="1" parent="1" source="jqKhOtcGuDsJszMlF_8p-118" target="jqKhOtcGuDsJszMlF_8p-15">
          <mxGeometry relative="1" as="geometry">
            <Array as="points">
              <mxPoint x="295" y="-210" />
              <mxPoint x="295" y="215" />
            </Array>
          </mxGeometry>
        </mxCell>
        <mxCell id="jqKhOtcGuDsJszMlF_8p-121" style="edgeStyle=orthogonalEdgeStyle;rounded=0;orthogonalLoop=1;jettySize=auto;html=1;entryX=0;entryY=0.5;entryDx=0;entryDy=0;strokeColor=#FF00FF;strokeWidth=3;" edge="1" parent="1" source="jqKhOtcGuDsJszMlF_8p-118" target="jqKhOtcGuDsJszMlF_8p-68">
          <mxGeometry relative="1" as="geometry">
            <Array as="points">
              <mxPoint x="580" y="205" />
            </Array>
          </mxGeometry>
        </mxCell>
        <mxCell id="jqKhOtcGuDsJszMlF_8p-122" style="edgeStyle=orthogonalEdgeStyle;rounded=0;orthogonalLoop=1;jettySize=auto;html=1;entryX=0;entryY=0.5;entryDx=0;entryDy=0;strokeColor=#FF00FF;strokeWidth=3;" edge="1" parent="1" source="jqKhOtcGuDsJszMlF_8p-118" target="jqKhOtcGuDsJszMlF_8p-32">
          <mxGeometry relative="1" as="geometry" />
        </mxCell>
        <mxCell id="jqKhOtcGuDsJszMlF_8p-125" style="edgeStyle=orthogonalEdgeStyle;rounded=0;orthogonalLoop=1;jettySize=auto;html=1;entryX=0;entryY=0.5;entryDx=0;entryDy=0;strokeColor=#FF00FF;strokeWidth=3;" edge="1" parent="1" source="jqKhOtcGuDsJszMlF_8p-118" target="jqKhOtcGuDsJszMlF_8p-43">
          <mxGeometry relative="1" as="geometry">
            <Array as="points">
              <mxPoint x="960" y="515" />
            </Array>
          </mxGeometry>
        </mxCell>
        <mxCell id="jqKhOtcGuDsJszMlF_8p-126" style="edgeStyle=orthogonalEdgeStyle;rounded=0;orthogonalLoop=1;jettySize=auto;html=1;entryX=0;entryY=0.5;entryDx=0;entryDy=0;strokeColor=#FF00FF;strokeWidth=3;" edge="1" parent="1" source="jqKhOtcGuDsJszMlF_8p-118" target="jqKhOtcGuDsJszMlF_8p-21">
          <mxGeometry relative="1" as="geometry">
            <Array as="points">
              <mxPoint x="1100" y="-200" />
              <mxPoint x="1100" y="300" />
              <mxPoint x="1420" y="300" />
              <mxPoint x="1420" y="355" />
            </Array>
          </mxGeometry>
        </mxCell>
        <mxCell id="jqKhOtcGuDsJszMlF_8p-127" style="edgeStyle=orthogonalEdgeStyle;rounded=0;orthogonalLoop=1;jettySize=auto;html=1;entryX=0;entryY=0.25;entryDx=0;entryDy=0;strokeColor=#FF00FF;strokeWidth=3;" edge="1" parent="1" source="jqKhOtcGuDsJszMlF_8p-118" target="jqKhOtcGuDsJszMlF_8p-51">
          <mxGeometry relative="1" as="geometry">
            <Array as="points">
              <mxPoint x="1530" y="-280" />
              <mxPoint x="1530" y="220" />
              <mxPoint x="1210" y="220" />
              <mxPoint x="1210" y="638" />
            </Array>
          </mxGeometry>
        </mxCell>
        <mxCell id="jqKhOtcGuDsJszMlF_8p-118" value="PIPELINE" style="shape=process;whiteSpace=wrap;html=1;backgroundOutline=1;strokeColor=#FF00FF;strokeWidth=3;" vertex="1" parent="1">
          <mxGeometry x="560" y="-300" width="500" height="120" as="geometry" />
        </mxCell>
      </root>
    </mxGraphModel>
  </diagram>
</mxfile>
